<mxfile host="app.diagrams.net" modified="2021-05-18T23:32:20.184Z" agent="5.0 (Windows NT 10.0; Win64; x64) AppleWebKit/537.36 (KHTML, like Gecko) Chrome/90.0.4430.212 Safari/537.36" etag="t5I4tSAg2omb71b5vutL" version="14.6.13" type="github">
  <diagram id="dFD_gRmo8pHgFdWxHc27" name="Page-1">
    <mxGraphModel dx="780" dy="752" grid="1" gridSize="10" guides="1" tooltips="1" connect="1" arrows="1" fold="1" page="1" pageScale="1" pageWidth="850" pageHeight="1100" math="0" shadow="0">
      <root>
        <mxCell id="0" />
        <mxCell id="1" parent="0" />
        <mxCell id="-ZKxTNw7ApkqcKcdXGza-5" value="" style="swimlane;startSize=0;" vertex="1" parent="1">
          <mxGeometry x="280" y="300" width="260" height="220" as="geometry" />
        </mxCell>
        <mxCell id="-ZKxTNw7ApkqcKcdXGza-6" value="Database" style="shape=cylinder3;whiteSpace=wrap;html=1;boundedLbl=1;backgroundOutline=1;size=15;" vertex="1" parent="-ZKxTNw7ApkqcKcdXGza-5">
          <mxGeometry x="170" y="80" width="60" height="80" as="geometry" />
        </mxCell>
        <mxCell id="-ZKxTNw7ApkqcKcdXGza-15" value="Host server" style="whiteSpace=wrap;html=1;aspect=fixed;" vertex="1" parent="-ZKxTNw7ApkqcKcdXGza-5">
          <mxGeometry x="-40" y="-40" width="80" height="80" as="geometry" />
        </mxCell>
        <mxCell id="-ZKxTNw7ApkqcKcdXGza-20" value="&lt;font style=&quot;font-size: 14px&quot;&gt;Agent&lt;/font&gt;" style="text;html=1;align=center;verticalAlign=middle;resizable=0;points=[];autosize=1;strokeColor=none;" vertex="1" parent="-ZKxTNw7ApkqcKcdXGza-5">
          <mxGeometry x="105" y="180" width="50" height="20" as="geometry" />
        </mxCell>
        <mxCell id="-ZKxTNw7ApkqcKcdXGza-7" value="&lt;span&gt;Bash scripts&lt;/span&gt;" style="whiteSpace=wrap;html=1;aspect=fixed;" vertex="1" parent="1">
          <mxGeometry x="310" y="390" width="70" height="70" as="geometry" />
        </mxCell>
        <mxCell id="-ZKxTNw7ApkqcKcdXGza-8" value="" style="swimlane;startSize=0;" vertex="1" parent="1">
          <mxGeometry x="90" y="710" width="260" height="220" as="geometry" />
        </mxCell>
        <mxCell id="-ZKxTNw7ApkqcKcdXGza-12" value="&lt;span&gt;Bash scripts&lt;/span&gt;" style="whiteSpace=wrap;html=1;aspect=fixed;" vertex="1" parent="-ZKxTNw7ApkqcKcdXGza-8">
          <mxGeometry x="110" y="70" width="70" height="70" as="geometry" />
        </mxCell>
        <mxCell id="-ZKxTNw7ApkqcKcdXGza-14" value="Host server" style="whiteSpace=wrap;html=1;aspect=fixed;" vertex="1" parent="-ZKxTNw7ApkqcKcdXGza-8">
          <mxGeometry x="-20" y="-30" width="80" height="80" as="geometry" />
        </mxCell>
        <mxCell id="-ZKxTNw7ApkqcKcdXGza-10" value="" style="swimlane;startSize=0;" vertex="1" parent="1">
          <mxGeometry x="490" y="710" width="260" height="220" as="geometry" />
        </mxCell>
        <mxCell id="-ZKxTNw7ApkqcKcdXGza-13" value="Bash scripts" style="whiteSpace=wrap;html=1;aspect=fixed;" vertex="1" parent="-ZKxTNw7ApkqcKcdXGza-10">
          <mxGeometry x="95" y="70" width="70" height="70" as="geometry" />
        </mxCell>
        <mxCell id="-ZKxTNw7ApkqcKcdXGza-17" value="&lt;font style=&quot;font-size: 14px&quot;&gt;Agent&lt;/font&gt;" style="text;html=1;align=center;verticalAlign=middle;resizable=0;points=[];autosize=1;strokeColor=none;" vertex="1" parent="-ZKxTNw7ApkqcKcdXGza-10">
          <mxGeometry x="105" y="180" width="50" height="20" as="geometry" />
        </mxCell>
        <mxCell id="-ZKxTNw7ApkqcKcdXGza-16" value="Host server" style="whiteSpace=wrap;html=1;aspect=fixed;" vertex="1" parent="1">
          <mxGeometry x="710" y="660" width="80" height="80" as="geometry" />
        </mxCell>
        <mxCell id="-ZKxTNw7ApkqcKcdXGza-19" value="&lt;font style=&quot;font-size: 14px&quot;&gt;Agent&lt;/font&gt;" style="text;html=1;align=center;verticalAlign=middle;resizable=0;points=[];autosize=1;strokeColor=none;" vertex="1" parent="1">
          <mxGeometry x="205" y="890" width="50" height="20" as="geometry" />
        </mxCell>
        <mxCell id="-ZKxTNw7ApkqcKcdXGza-21" value="Network switch" style="rounded=0;whiteSpace=wrap;html=1;" vertex="1" parent="1">
          <mxGeometry x="350" y="580" width="120" height="60" as="geometry" />
        </mxCell>
        <mxCell id="-ZKxTNw7ApkqcKcdXGza-23" value="" style="endArrow=classic;html=1;fillColor=#dae8fc;strokeColor=#6c8ebf;" edge="1" parent="1">
          <mxGeometry width="50" height="50" relative="1" as="geometry">
            <mxPoint x="220" y="710" as="sourcePoint" />
            <mxPoint x="330" y="630" as="targetPoint" />
          </mxGeometry>
        </mxCell>
        <mxCell id="-ZKxTNw7ApkqcKcdXGza-24" value="" style="endArrow=classic;html=1;fillColor=#dae8fc;strokeColor=#6c8ebf;" edge="1" parent="1">
          <mxGeometry width="50" height="50" relative="1" as="geometry">
            <mxPoint x="610" y="710" as="sourcePoint" />
            <mxPoint x="490" y="630" as="targetPoint" />
          </mxGeometry>
        </mxCell>
        <mxCell id="-ZKxTNw7ApkqcKcdXGza-25" value="" style="endArrow=classic;html=1;fillColor=#dae8fc;strokeColor=#6c8ebf;" edge="1" parent="1">
          <mxGeometry width="50" height="50" relative="1" as="geometry">
            <mxPoint x="420" y="520" as="sourcePoint" />
            <mxPoint x="420" y="560" as="targetPoint" />
          </mxGeometry>
        </mxCell>
        <mxCell id="-ZKxTNw7ApkqcKcdXGza-26" value="" style="endArrow=classic;html=1;entryX=0;entryY=0.625;entryDx=0;entryDy=0;entryPerimeter=0;fillColor=#fff2cc;strokeColor=#d6b656;" edge="1" parent="1" target="-ZKxTNw7ApkqcKcdXGza-6">
          <mxGeometry width="50" height="50" relative="1" as="geometry">
            <mxPoint x="380" y="430" as="sourcePoint" />
            <mxPoint x="490" y="350" as="targetPoint" />
          </mxGeometry>
        </mxCell>
        <mxCell id="-ZKxTNw7ApkqcKcdXGza-27" value="" style="endArrow=classic;html=1;fillColor=#fff2cc;strokeColor=#d6b656;" edge="1" parent="1">
          <mxGeometry width="50" height="50" relative="1" as="geometry">
            <mxPoint x="620" y="780" as="sourcePoint" />
            <mxPoint x="450" y="660" as="targetPoint" />
          </mxGeometry>
        </mxCell>
        <mxCell id="-ZKxTNw7ApkqcKcdXGza-28" value="" style="endArrow=classic;html=1;fillColor=#fff2cc;strokeColor=#d6b656;" edge="1" parent="1">
          <mxGeometry width="50" height="50" relative="1" as="geometry">
            <mxPoint x="240" y="780" as="sourcePoint" />
            <mxPoint x="370" y="660" as="targetPoint" />
          </mxGeometry>
        </mxCell>
        <mxCell id="-ZKxTNw7ApkqcKcdXGza-29" value="" style="endArrow=classic;html=1;entryX=0.483;entryY=1.113;entryDx=0;entryDy=0;entryPerimeter=0;fillColor=#fff2cc;strokeColor=#d6b656;" edge="1" parent="1" target="-ZKxTNw7ApkqcKcdXGza-6">
          <mxGeometry width="50" height="50" relative="1" as="geometry">
            <mxPoint x="430" y="560" as="sourcePoint" />
            <mxPoint x="540" y="480" as="targetPoint" />
          </mxGeometry>
        </mxCell>
      </root>
    </mxGraphModel>
  </diagram>
</mxfile>
